<svg width="14" height="18" viewBox="0 0 14 18" fill="none" xmlns="http://www.w3.org/2000/svg">
<path d="M7 3.9375C5.44693 3.9375 4.1875 5.19693 4.1875 6.75C4.1875 8.30307 5.44693 9.5625 7 9.5625C8.55307 9.5625 9.8125 8.30307 9.8125 6.75C9.8125 5.19693 8.55307 3.9375 7 3.9375ZM7 8.4375C6.06793 8.4375 5.3125 7.68207 5.3125 6.75C5.3125 5.81793 6.06793 5.0625 7 5.0625C7.93207 5.0625 8.6875 5.81793 8.6875 6.75C8.6875 7.68207 7.93207 8.4375 7 8.4375ZM7 0C3.27232 0 0.25 3.02232 0.25 6.75C0.25 9.57207 5.87782 18.0056 7 18C8.10475 18.0056 13.75 9.53439 13.75 6.75C13.75 3.02232 10.7277 0 7 0ZM7 16.3125C6.06457 16.3176 1.375 9.1018 1.375 6.75C1.375 3.64332 3.89332 1.125 7 1.125C10.1067 1.125 12.625 3.64332 12.625 6.75C12.625 9.07032 7.92082 16.3176 7 16.3125Z" fill="white"/>
</svg>
